<svg xmlns="http://www.w3.org/2000/svg" xmlns:xlink="http://www.w3.org/1999/xlink" version="1.1" width="256" height="256" viewBox="0 0 256 256" xml:space="preserve">

<defs>
</defs>
<g style="stroke: none; stroke-width: 0; stroke-dasharray: none; stroke-linecap: butt; stroke-linejoin: miter; stroke-miterlimit: 10; fill: none; fill-rule: nonzero; opacity: 1;" transform="translate(0 -2.842170943040401e-14) scale(2.81 2.81)" >
	<path d="M 90 90 H 0 V 0 h 90 V 90 z M 5.625 84.375 h 78.75 V 5.625 H 5.625 V 84.375 z" style="stroke: none; stroke-width: 1; stroke-dasharray: none; stroke-linecap: butt; stroke-linejoin: miter; stroke-miterlimit: 10; fill: rgb(0,0,0); fill-rule: nonzero; opacity: 1;" transform=" matrix(1 0 0 1 0 0) " stroke-linecap="round" />
</g>
<g style="stroke: none; stroke-width: 0; stroke-dasharray: none; stroke-linecap: butt; stroke-linejoin: miter; stroke-miterlimit: 10; fill: none; fill-rule: nonzero; opacity: 1;" transform="translate(46.17984832069338 46.17984832069335) scale(1.82 1.82)" >
	<path d="M 88.429 10.338 h -7.35 H 8.92 H 1.571 c -0.847 0 -1.534 0.687 -1.534 1.534 V 27.49 c 0 0.847 0.687 1.534 1.534 1.534 s 1.534 -0.687 1.534 -1.534 V 13.406 H 8.92 h 72.159 h 5.816 V 27.49 c 0 0.847 0.687 1.534 1.534 1.534 s 1.534 -0.687 1.534 -1.534 V 11.872 C 89.963 11.025 89.276 10.338 88.429 10.338 z" style="stroke: none; stroke-width: 1; stroke-dasharray: none; stroke-linecap: butt; stroke-linejoin: miter; stroke-miterlimit: 10; fill: rgb(173,196,229); fill-rule: nonzero; opacity: 1;" transform=" matrix(1 0 0 1 0 0) " stroke-linecap="round" />
	<path d="M 79.471 44.637 c -22.258 5.596 -45.269 5.364 -68.943 0 V 10.338 c 22.981 -4.821 45.962 -4.821 68.943 0 V 44.637 z" style="stroke: none; stroke-width: 1; stroke-dasharray: none; stroke-linecap: butt; stroke-linejoin: miter; stroke-miterlimit: 10; fill: rgb(225,231,241); fill-rule: nonzero; opacity: 1;" transform=" matrix(1 0 0 1 0 0) " stroke-linecap="round" />
	<path d="M 31.42 76.421 v 9.908 c 0 2.019 -1.652 3.671 -3.671 3.671 h -7.148 c -2.019 0 -3.671 -1.652 -3.671 -3.671 v -9.908 C 21.761 73.161 26.591 73.161 31.42 76.421 z" style="stroke: none; stroke-width: 1; stroke-dasharray: none; stroke-linecap: butt; stroke-linejoin: miter; stroke-miterlimit: 10; fill: rgb(42,70,111); fill-rule: nonzero; opacity: 1;" transform=" matrix(1 0 0 1 0 0) " stroke-linecap="round" />
	<path d="M 73.069 76.421 v 9.908 c 0 2.019 -1.652 3.671 -3.671 3.671 H 62.25 c -2.019 0 -3.671 -1.652 -3.671 -3.671 v -9.908 C 63.409 73.161 68.239 73.161 73.069 76.421 z" style="stroke: none; stroke-width: 1; stroke-dasharray: none; stroke-linecap: butt; stroke-linejoin: miter; stroke-miterlimit: 10; fill: rgb(42,70,111); fill-rule: nonzero; opacity: 1;" transform=" matrix(1 0 0 1 0 0) " stroke-linecap="round" />
	<path d="M 10.529 71.981 c 0 2.452 1.988 4.44 4.44 4.44 h 60.062 c 2.452 0 4.44 -1.988 4.44 -4.44 V 44.637 H 10.529 V 71.981 z" style="stroke: none; stroke-width: 1; stroke-dasharray: none; stroke-linecap: butt; stroke-linejoin: miter; stroke-miterlimit: 10; fill: rgb(237,217,28); fill-rule: nonzero; opacity: 1;" transform=" matrix(1 0 0 1 0 0) " stroke-linecap="round" />
	<path d="M 75.031 0 H 14.969 c -2.452 0 -4.44 1.988 -4.44 4.44 v 5.898 h 68.943 V 4.44 C 79.471 1.988 77.483 0 75.031 0 z" style="stroke: none; stroke-width: 1; stroke-dasharray: none; stroke-linecap: butt; stroke-linejoin: miter; stroke-miterlimit: 10; fill: rgb(237,217,28); fill-rule: nonzero; opacity: 1;" transform=" matrix(1 0 0 1 0 0) " stroke-linecap="round" />
	<circle cx="24.174" cy="61.094" r="6.354" style="stroke: none; stroke-width: 1; stroke-dasharray: none; stroke-linecap: butt; stroke-linejoin: miter; stroke-miterlimit: 10; fill: rgb(225,231,241); fill-rule: nonzero; opacity: 1;" transform="  matrix(1 0 0 1 0 0) "/>
	<circle cx="65.824" cy="61.094" r="6.354" style="stroke: none; stroke-width: 1; stroke-dasharray: none; stroke-linecap: butt; stroke-linejoin: miter; stroke-miterlimit: 10; fill: rgb(225,231,241); fill-rule: nonzero; opacity: 1;" transform="  matrix(1 0 0 1 0 0) "/>
	<path d="M 50.388 62.598 H 39.612 c -0.829 0 -1.5 -0.672 -1.5 -1.5 s 0.671 -1.5 1.5 -1.5 h 10.775 c 0.828 0 1.5 0.672 1.5 1.5 S 51.216 62.598 50.388 62.598 z" style="stroke: none; stroke-width: 1; stroke-dasharray: none; stroke-linecap: butt; stroke-linejoin: miter; stroke-miterlimit: 10; fill: rgb(173,196,229); fill-rule: nonzero; opacity: 1;" transform=" matrix(1 0 0 1 0 0) " stroke-linecap="round" />
</g>
</svg>